<svg width="21" height="8" viewBox="0 0 21 8" fill="none" xmlns="http://www.w3.org/2000/svg">
    <path d="M6.06038 5.29799V7.84999H4.56438V5.63899L3.90438 4.90199H1.50638V7.84999H0.010376V0.149994H4.83938L6.01638 1.33799V3.66999L5.26838 4.42899L6.06038 5.29799ZM1.50638 3.66999H4.15738L4.54238 3.28499V1.78899L4.15738 1.40399H1.50638V3.66999Z"
          fill="white"/>
    <path d="M7.32323 6.58499V1.41499L8.58823 0.149994H12.4162L13.6592 1.39299V2.56999H12.1632V1.94299L11.6462 1.42599H9.38023L8.81923 1.98699V6.01299L9.38023 6.57399H11.6682L12.2072 6.03499V4.83599H10.5572V3.55999H13.6592V6.58499L12.3942 7.84999H8.58823L7.32323 6.58499Z"
          fill="white"/>
    <path d="M16.6115 3.87899L14.0375 0.149994H15.7205L17.4585 2.67999L19.1965 0.149994H20.8795L18.3055 3.92299L20.9895 7.84999H19.3065L17.4585 5.13299L15.6105 7.84999H13.9275L16.6115 3.87899Z"
          fill="white"/>
</svg>
